<svg xmlns="http://www.w3.org/2000/svg" width="94.42" height="95.399" viewBox="0 0 94.42 95.399"><defs><style>.a,.b,.c{fill:#0a50d7;}.b{opacity:0.8;}.c{opacity:0.5;}</style></defs><g transform="translate(-101.212 -246.391)"><g transform="translate(101.212 246.391)"><path class="a" d="M187.013,311.4l-35.406-20.442L128,277.324v27.258h0l4.444,2.566L139.8,311.4h0l35.406,20.442h0l23.607,13.63V318.21Z" transform="translate(-116.198 -263.696)"/><path class="b" d="M205.188,246.391l-23.6,13.628v11.358L205.188,285Z" transform="translate(-146.176 -246.391)"/><path class="c" d="M249.463,292.792l-9.838,5.68V312.1l11.8,6.814,21.638-12.493Z" transform="translate(-178.646 -272.349)"/><path class="c" d="M134.654,364.054l-11.8-6.814-21.638,12.493,23.6,13.629,9.838-5.68Z" transform="translate(-101.212 -308.405)"/><path class="b" d="M181.585,375.286V413.9l23.6-13.628V388.914Z" transform="translate(-146.176 -318.5)"/></g></g></svg>